# xmcd
#
# Track frame offsets: 
#        150
#        3747
#        13092
#        15130
#        21190
#        34325
#        48892
#        53485
#        71687
#        84012
#        93375
#        100780
#        110140
#        115067
#        120025
#        132640
#        146347
#        154817
#        158845
#        175232
#        181995
#        204532
#
# Disc length: 2851 seconds
#
# Revision: 4
# Processed by: cddbd v1.5.2PL0 Copyright (c) Steve Scherf et al.
# Submitted via: ExactAudioCopyFreeDBPlugin 1.0
#
DISCID=120b2116
DTITLE=Various Artist - Railroad Songs and Ballads:  The Library of C
DTITLE=ongress (Archive of Folk Culture)
DYEAR=1968
DGENRE=Trains
TTITLE0=An Unknown Old Train-Caller - Calling Trains
TTITLE1=Mrs. Minta Morgan - The Boss of the Section Gang
TTITLE2=Warde H. Ford - Jerry Will You Lie That Car
TTITLE3=Henry Hankins - Lining Track
TTITLE4=Aunt Molly Jackson - Roll on Buddy
TTITLE5=Blaine Stubblefield - Way Out in Idaho
TTITLE6=Nobel B. Brown - Oh I'm a Jolly Irishman Winding on the Train
TTITLE7=Lester A. Coffee - The Engineer
TTITLE8=Austin Harmon - George Allen
TTITLE9=Clarence H. Wyatt - The Wreck of the Royal Palm
TTITLE10=Russell Wise and Mr. White - Train Blues
TTITLE11=Ridge Rangers - The New River Train
TTITLE12=Mrs. Esco Kilgore - The Train is Off the Track
TTITLE13=Will Wright - Gonna Lay My Head Down on Some Railroad Line
TTITLE14=Merle Lovell - I Rode Southern, I Rode L and N
TTITLE15=Jim Holbert - The Lightning Express
TTITLE16=Joe Harris and Kid West - Railroad Rag
TTITLE17=May Kennedy McCord - The Railroader
TTITLE18=Mrs. Mary Sullivan - The T and P Line
TTITLE19=George Lay - The Dying Hobo
TTITLE20=Harry McClintock - The Big Rock Candy Mountain
TTITLE21=E.M. Martin and Pearline Johns - I'm Going Home on the Mornin
TTITLE21=g Train
EXTD=YEAR: 1968
EXTT0=
EXTT1=
EXTT2=
EXTT3=
EXTT4=
EXTT5=
EXTT6=
EXTT7=
EXTT8=
EXTT9=
EXTT10=
EXTT11=
EXTT12=
EXTT13=
EXTT14=
EXTT15=
EXTT16=
EXTT17=
EXTT18=
EXTT19=
EXTT20=
EXTT21=
PLAYORDER=
